<svg xmlns="http://www.w3.org/2000/svg" version="1.1" viewBox="106.24675324675324 73.64 576.4675324675325 155.696" style="max-height: 500px" width="576.4675324675325" height="155.696">
<g id="#010101ff">
<path d="M 600.17 89.21 C 600.81 89.85 600.81 89.85 600.17 89.21 Z" opacity="1.00" fill="#010101"/>
<path d="M 165.17 323.19 C 165.85 323.86 165.85 323.86 165.17 323.19 Z" opacity="1.00" fill="#010101"/>
</g>
<g id="#ffffffff">
<path d="M 576.24 82.26 C 580.23 82.42 583.97 80.86 587.87 80.26 C 593.92 80.78 600.08 81.74 606.11 80.48 C 608.48 80.85 610.85 81.46 613.27 81.12 C 616.34 80.68 619.16 82.25 622.12 82.75 C 630.97 81.32 639.94 82.25 648.83 82.04 C 651.88 83.42 655.27 85.23 656.24 88.71 C 656.93 91.00 658.29 92.92 660.02 94.54 C 658.44 97.97 660.36 101.31 661.13 104.67 C 659.37 106.99 656.59 107.27 653.89 107.52 C 650.78 102.35 647.39 97.35 642.85 93.31 C 634.72 95.53 626.26 94.54 617.96 95.30 C 612.31 95.00 606.71 95.81 601.07 95.93 C 597.76 96.63 594.41 98.01 590.99 97.43 C 590.44 103.54 592.24 109.67 590.77 115.70 C 589.89 120.76 588.63 125.80 588.95 130.98 C 593.90 131.67 599.07 130.21 603.71 132.72 C 606.60 131.37 609.12 129.42 611.81 127.74 C 616.15 125.49 620.86 123.90 625.76 123.52 C 627.40 124.86 629.16 126.04 630.93 127.22 C 632.17 133.34 630.79 139.81 633.44 145.63 C 634.22 148.25 634.15 151.05 635.03 153.66 C 634.22 154.40 633.44 155.15 632.67 155.90 C 631.60 155.93 630.54 155.96 629.49 155.98 C 628.23 154.09 625.96 153.05 625.04 150.95 C 624.27 148.90 622.20 147.83 620.80 146.27 C 617.05 147.11 613.21 147.46 609.55 148.65 C 607.52 149.54 605.45 148.06 603.41 148.51 C 600.09 149.32 596.57 148.88 593.35 150.04 C 592.05 151.01 591.53 152.72 591.13 154.22 C 591.04 159.01 589.73 163.76 590.42 168.56 C 590.93 171.38 589.68 174.13 589.94 176.96 C 590.39 182.07 588.26 186.96 589.10 192.09 C 591.04 191.99 592.98 191.74 594.93 191.56 C 600.63 192.65 606.29 190.52 611.96 190.21 C 614.93 190.83 617.88 189.88 620.64 188.83 C 628.60 187.63 637.14 185.56 644.95 188.16 C 647.72 187.64 650.63 186.25 653.37 187.68 C 654.44 185.29 657.53 185.17 659.28 183.41 C 662.12 181.77 664.04 179.17 665.86 176.52 C 666.85 177.83 667.88 179.12 668.84 180.47 C 669.61 182.55 668.25 184.53 667.55 186.41 C 668.11 191.19 666.67 195.88 666.96 200.66 C 665.22 201.35 663.65 202.51 661.81 202.89 C 654.06 203.08 646.30 204.44 638.57 204.07 C 635.00 202.47 631.19 203.65 627.50 203.88 C 624.17 203.91 621.21 206.33 617.85 205.19 C 611.81 205.70 605.72 205.56 599.65 205.73 C 595.73 206.13 591.69 205.60 587.98 207.21 C 583.81 207.72 579.58 207.62 575.39 208.27 C 572.94 209.03 571.66 211.64 569.17 212.24 C 566.29 213.66 563.27 211.92 560.47 211.12 C 560.72 209.46 560.85 207.78 560.97 206.10 C 563.80 204.78 566.71 203.64 569.61 202.47 C 571.87 196.86 570.35 190.77 571.73 184.99 C 571.01 178.66 568.63 172.35 569.80 165.95 C 570.86 145.79 568.47 125.42 572.38 105.43 C 573.45 101.74 572.48 97.76 574.03 94.18 C 570.69 93.08 567.19 92.67 563.78 91.88 C 563.91 90.75 564.04 89.62 564.16 88.48 C 569.30 88.41 571.11 82.19 576.24 82.26 M 579.30 91.22 C 579.53 95.32 579.36 99.43 578.71 103.49 C 578.14 106.23 579.67 109.35 577.35 111.56 C 576.87 118.55 577.23 125.60 576.17 132.54 C 576.79 132.70 578.02 133.00 578.64 133.15 C 580.36 125.65 581.44 118.03 583.67 110.64 C 584.43 106.06 583.83 101.36 583.04 96.82 C 582.80 95.23 582.98 93.37 584.35 92.31 C 588.35 88.81 593.91 90.92 598.68 89.73 C 592.49 86.70 585.26 88.64 579.30 91.22 M 600.17 89.21 C 600.81 89.85 600.81 89.85 600.17 89.21 M 647.28 89.09 C 646.76 90.60 649.45 91.71 650.56 90.85 C 651.12 89.21 648.43 88.20 647.28 89.09 M 612.98 136.97 C 611.77 137.48 611.13 138.64 610.48 139.70 C 612.34 139.64 614.23 139.56 616.00 138.89 C 619.01 139.18 621.88 140.20 624.57 141.55 C 625.34 137.84 625.94 134.02 625.52 130.22 C 620.74 131.21 617.11 134.64 612.98 136.97 M 575.33 136.06 C 576.15 137.65 577.01 139.29 576.84 141.15 C 578.58 152.02 575.76 162.85 575.78 173.76 C 576.86 177.41 578.12 181.06 578.45 184.88 C 577.81 190.57 575.84 196.26 577.13 202.00 C 581.54 202.24 586.08 202.37 590.37 201.11 C 592.98 200.28 595.52 201.71 598.07 202.14 C 598.54 201.45 599.01 200.77 599.48 200.08 C 601.24 200.91 602.99 202.11 605.04 201.85 C 611.25 202.09 617.42 201.33 623.60 200.93 C 631.81 197.91 640.62 200.01 648.97 197.82 C 653.27 196.35 657.50 198.33 661.87 198.05 C 662.03 193.96 662.85 189.93 662.76 185.81 C 661.66 186.30 660.59 186.81 659.52 187.31 C 659.41 186.56 659.20 185.05 659.10 184.30 C 657.50 186.32 657.19 189.69 654.21 190.23 C 649.17 192.71 643.51 192.10 638.10 192.63 C 636.18 192.35 634.26 191.71 632.32 192.07 C 628.05 194.94 622.56 194.22 617.78 195.81 C 610.15 196.13 602.71 198.91 594.99 198.14 C 592.16 198.31 589.38 199.36 587.31 201.34 C 587.58 200.26 587.86 199.19 588.16 198.12 C 585.10 198.02 582.96 195.82 581.05 193.69 C 581.44 188.50 583.63 183.49 583.24 178.20 C 584.21 173.11 582.99 167.92 583.75 162.81 C 584.30 156.61 583.83 150.37 583.99 144.15 C 586.39 143.00 589.02 142.56 591.61 141.99 C 589.99 140.18 587.74 141.31 585.84 141.83 C 582.00 141.05 579.74 137.97 578.04 134.70 C 577.13 135.16 576.23 135.61 575.33 136.06 M 600.01 140.41 C 600.00 141.84 603.57 143.25 603.87 141.42 C 602.91 140.52 601.25 140.13 600.01 140.41 M 593.00 141.21 C 594.04 142.37 597.31 141.89 599.01 141.65 C 598.23 139.90 594.63 140.77 593.00 141.21 Z" opacity="1.00" fill="#ffffff"/>
<path d="M 621.23 80.12 C 624.35 78.59 621.46 83.34 621.23 80.12 Z" opacity="1.00" fill="#ffffff"/>
<path d="M 538.50 87.80 C 540.23 86.45 541.90 84.07 544.41 85.10 C 545.26 86.68 546.30 88.14 547.57 89.41 C 547.34 90.20 547.12 90.98 546.91 91.77 C 545.71 92.70 543.76 93.08 543.62 94.88 C 542.73 98.18 542.01 101.53 541.39 104.89 C 542.90 108.29 540.39 111.69 541.75 115.07 C 540.84 119.30 541.12 123.70 540.91 128.04 C 539.83 135.94 539.49 143.92 538.72 151.86 C 539.25 156.50 538.73 161.16 538.28 165.78 C 539.60 170.16 538.58 174.80 539.84 179.21 C 540.44 180.66 539.24 181.60 538.30 182.49 C 541.15 187.51 537.77 193.26 538.21 198.49 C 539.84 200.05 540.91 202.01 542.04 203.93 C 545.02 202.63 548.32 205.76 547.90 208.69 C 544.95 211.63 540.78 212.49 536.85 213.25 C 531.55 212.96 526.25 213.27 520.96 212.97 C 517.12 212.64 513.46 214.09 510.00 215.58 C 507.25 214.71 505.86 212.30 504.64 209.88 C 507.55 205.97 512.21 204.35 516.08 201.66 C 515.50 200.07 515.04 198.45 514.75 196.80 C 515.83 197.12 516.91 197.48 517.98 197.87 C 517.97 194.61 519.03 191.46 518.22 188.22 C 520.41 181.18 516.64 174.17 517.05 167.06 C 516.56 160.71 518.24 154.46 517.95 148.14 C 516.50 143.24 517.19 138.12 516.76 133.10 C 517.04 128.79 518.50 124.62 518.37 120.25 C 519.45 115.48 518.37 110.49 519.79 105.78 C 518.99 102.48 520.67 99.07 518.81 95.97 C 516.90 95.37 514.94 95.81 513.03 96.11 C 511.65 93.91 512.29 91.23 512.99 88.91 C 515.29 88.66 517.62 88.54 519.94 88.78 C 523.74 89.12 527.44 86.67 531.24 87.80 C 533.64 88.11 536.11 88.22 538.50 87.80 M 527.29 95.11 C 529.11 104.99 526.45 114.88 525.65 124.74 C 525.07 130.75 523.60 136.75 524.12 142.80 C 525.34 146.50 525.14 150.41 524.76 154.23 C 525.15 162.92 523.34 171.78 526.19 180.24 C 527.51 184.19 525.13 188.18 526.71 192.09 C 525.64 195.67 525.31 199.44 523.99 202.95 C 524.46 203.94 524.93 204.93 525.39 205.92 C 527.94 205.95 530.54 205.87 533.03 206.61 C 533.63 205.98 534.24 205.35 534.87 204.73 C 531.74 200.33 531.21 194.88 532.67 189.74 C 533.44 180.59 532.78 171.36 532.62 162.20 C 533.17 158.44 532.80 154.62 532.17 150.90 C 533.33 144.73 532.65 138.42 533.19 132.21 C 534.57 126.56 533.49 120.70 534.42 115.00 C 533.48 108.12 533.77 101.13 535.93 94.51 C 533.03 93.53 530.12 94.31 527.29 95.11 Z" opacity="1.00" fill="#ffffff"/>
<path d="M 450.02 87.99 C 460.29 87.15 470.31 91.73 480.57 89.57 C 484.05 88.63 487.76 89.34 491.21 88.21 C 492.05 89.86 492.81 91.59 492.87 93.48 C 487.28 96.47 480.23 98.00 476.33 103.33 C 474.64 108.94 471.17 113.77 469.33 119.33 C 466.81 124.60 463.01 129.17 460.12 134.19 C 458.61 139.40 453.87 142.67 451.26 147.25 C 449.90 149.61 448.10 151.68 446.00 153.40 C 446.85 156.30 447.22 159.37 449.64 161.45 C 449.77 167.06 456.90 170.55 454.49 176.54 C 456.04 177.61 457.44 178.90 458.85 180.16 C 458.50 180.98 458.17 181.82 457.85 182.66 C 458.78 183.66 459.85 184.60 460.14 186.02 C 461.70 190.33 465.48 193.23 468.55 196.46 C 470.70 199.30 472.65 202.41 475.76 204.33 C 474.86 205.13 473.94 205.90 473.02 206.67 C 473.68 206.59 475.01 206.43 475.67 206.35 C 477.54 210.90 482.75 209.92 486.58 211.35 C 489.23 212.18 491.92 212.88 494.68 213.29 C 496.31 214.10 497.33 215.68 498.47 217.03 C 497.06 217.62 495.61 218.17 494.06 218.04 C 483.45 218.15 472.70 216.97 462.23 219.19 C 457.82 221.28 453.16 223.44 448.16 223.10 C 446.57 221.42 446.66 219.24 446.90 217.10 C 450.33 215.81 453.34 213.31 457.23 213.81 C 457.32 211.08 455.15 209.31 453.68 207.30 C 451.01 204.22 449.92 199.87 446.27 197.67 C 444.61 195.59 443.43 193.05 442.32 190.62 C 441.47 186.21 438.62 182.58 435.93 179.11 C 434.36 176.58 432.79 174.05 430.73 171.88 C 425.34 175.77 421.72 181.41 416.90 185.89 C 414.77 189.07 412.01 191.76 408.83 193.88 C 406.08 197.26 403.23 200.73 401.96 204.98 C 403.45 207.07 404.32 209.50 405.17 211.91 C 403.92 212.82 402.83 214.42 401.08 214.17 C 396.29 213.04 392.13 209.96 387.17 209.40 C 383.58 210.80 380.21 212.87 376.31 213.34 C 374.03 214.41 371.66 215.11 369.11 214.88 C 369.01 212.76 368.29 210.53 369.15 208.48 C 370.20 207.41 371.29 206.37 372.42 205.40 C 385.36 198.94 394.17 187.07 403.43 176.43 C 406.34 174.52 407.26 170.99 409.38 168.39 C 412.27 165.01 414.26 160.96 417.40 157.79 C 415.02 153.20 410.02 151.08 406.70 147.32 C 399.57 140.74 395.94 131.48 389.96 123.97 C 387.09 120.44 387.12 115.40 383.86 112.15 C 382.77 110.82 382.88 108.69 381.22 107.78 C 377.25 105.19 373.37 102.32 368.82 100.82 C 369.22 101.97 369.62 103.13 370.04 104.29 C 367.85 104.10 365.97 102.99 364.15 101.87 C 364.12 99.04 363.31 96.32 362.87 93.55 C 367.77 92.07 373.05 89.94 378.14 91.82 C 383.08 90.44 388.28 91.83 393.25 91.04 C 398.06 88.37 403.08 92.04 406.26 95.54 C 402.84 97.79 399.22 99.86 396.51 103.00 C 400.41 104.80 402.44 108.79 405.78 111.31 C 407.70 112.57 407.18 115.48 409.25 116.61 C 411.93 118.03 412.60 121.17 414.95 122.97 C 416.67 127.05 417.02 132.39 421.12 134.89 C 424.21 138.36 426.17 142.63 429.67 145.74 C 431.26 142.13 433.76 139.02 435.44 135.44 C 440.76 126.87 448.39 119.76 452.27 110.31 C 453.71 106.30 458.41 102.95 456.95 98.35 C 454.38 96.41 451.03 95.76 448.03 94.65 C 448.51 92.36 448.28 89.82 450.02 87.99 M 379.40 98.48 C 380.20 98.66 381.79 99.02 382.59 99.20 C 383.31 102.07 386.38 102.46 388.64 103.60 C 390.03 104.84 389.60 106.96 390.03 108.61 C 390.97 109.08 391.90 109.57 392.82 110.08 C 393.38 112.72 393.64 115.68 395.67 117.67 C 396.20 119.18 395.95 120.82 396.07 122.40 C 399.45 123.59 400.19 127.30 402.44 129.66 C 403.40 132.35 404.99 134.72 406.18 137.29 C 409.94 144.22 417.29 148.03 421.75 154.40 C 422.21 156.76 424.31 159.86 421.78 161.69 C 419.07 164.17 417.84 167.72 415.53 170.52 C 412.48 176.24 408.08 181.03 403.59 185.61 C 400.22 187.61 399.37 191.97 396.10 194.08 C 392.36 196.32 390.84 200.91 386.86 202.84 C 389.64 204.03 392.65 204.18 395.63 203.93 C 396.86 198.69 399.82 194.24 402.98 189.99 C 408.73 186.04 411.92 179.64 417.14 175.14 C 420.94 170.66 424.65 165.75 429.87 162.84 C 431.35 163.97 432.92 164.98 434.68 165.67 C 435.07 168.08 435.09 171.12 437.62 172.35 C 439.72 173.27 440.10 175.41 440.12 177.47 C 443.72 178.12 442.46 182.31 444.69 184.30 C 447.01 187.13 449.71 190.68 448.65 194.53 C 452.25 195.75 453.19 199.79 455.74 202.22 C 459.44 205.41 460.89 210.37 464.34 213.77 C 468.01 213.99 471.95 215.55 475.42 213.81 C 473.03 209.81 470.99 205.57 468.13 201.86 C 464.34 199.35 461.86 195.48 458.42 192.59 C 454.36 187.01 450.58 181.04 448.63 174.36 C 446.13 167.34 440.73 161.51 439.54 154.01 C 441.77 148.24 446.31 143.84 449.88 138.91 C 453.61 135.29 454.89 130.08 458.03 126.01 C 462.29 120.50 464.50 113.85 467.78 107.78 C 469.63 104.51 470.55 100.70 473.22 97.93 C 470.23 97.54 467.27 96.94 464.25 96.90 C 463.86 101.89 461.03 106.23 458.40 110.34 C 456.23 113.97 455.12 118.16 452.56 121.56 C 449.89 125.22 446.79 128.58 444.59 132.56 C 441.08 136.24 439.34 141.15 435.85 144.85 C 434.83 145.84 435.11 147.38 434.73 148.64 C 433.75 150.42 431.77 151.14 430.12 152.12 C 428.83 151.34 427.25 150.91 426.38 149.60 C 424.65 147.01 421.54 145.76 420.02 142.99 C 417.11 138.33 412.93 134.60 410.25 129.79 C 408.82 126.67 407.01 123.73 405.06 120.91 C 401.89 118.03 399.81 114.18 396.67 111.28 C 396.08 111.14 394.89 110.86 394.29 110.72 C 394.18 107.62 390.39 106.84 389.97 103.86 C 389.34 101.23 391.09 99.09 392.23 96.92 C 387.96 96.19 383.48 97.13 379.40 98.48 Z" opacity="1.00" fill="#ffffff"/>
<path d="M 308.45 90.36 C 312.57 89.26 316.81 89.88 321.00 89.88 C 326.09 89.78 330.51 92.61 335.06 94.44 C 334.94 95.93 334.09 97.55 335.14 98.88 C 336.80 101.80 336.04 105.87 338.85 108.10 C 341.46 110.20 341.21 113.74 341.63 116.75 C 340.95 118.57 338.88 118.05 337.38 117.91 C 333.03 115.29 328.92 112.26 325.00 109.03 C 322.02 106.43 317.89 105.43 314.10 106.66 C 310.48 105.99 307.41 108.56 303.93 108.96 C 298.90 109.20 293.84 108.75 288.83 109.33 C 283.51 108.96 278.27 108.10 273.17 106.52 C 272.01 109.14 271.28 111.91 270.32 114.61 C 273.97 119.90 270.78 126.30 271.28 132.09 C 271.23 135.14 274.31 136.94 274.31 139.98 C 276.52 139.14 278.77 139.82 281.03 139.90 C 288.94 138.79 297.16 139.24 304.70 136.11 C 306.23 137.07 307.74 138.08 309.23 139.11 C 309.38 143.11 310.94 147.31 309.17 151.15 C 311.67 154.22 311.43 158.46 312.97 161.99 C 311.26 163.14 309.24 163.70 307.18 163.44 C 304.35 162.08 302.32 159.59 299.75 157.86 C 296.15 156.84 292.38 157.07 288.75 157.84 C 286.08 158.39 283.45 157.38 280.82 157.08 C 277.23 156.64 273.64 156.35 270.06 155.85 C 268.49 158.98 267.65 162.42 267.90 165.93 C 268.06 168.72 265.63 171.03 266.17 173.85 C 266.53 177.68 267.44 181.61 266.27 185.39 C 265.80 188.86 263.63 192.48 265.33 195.91 C 268.19 196.04 271.07 195.97 273.88 195.39 C 278.35 194.29 282.88 196.66 287.36 195.44 C 293.58 193.95 300.17 196.64 306.17 194.11 C 315.26 194.50 324.62 194.37 333.26 191.08 C 336.39 190.09 338.32 193.20 340.22 195.07 C 338.23 199.70 337.47 204.68 336.79 209.64 C 335.39 211.87 333.36 213.57 331.29 215.14 C 325.24 210.71 317.76 214.11 311.01 214.03 C 306.67 213.85 302.43 215.22 298.08 214.70 C 294.57 215.05 290.96 214.49 287.55 215.58 C 282.83 216.83 277.94 216.90 273.15 217.71 C 269.75 216.99 266.26 216.85 262.85 216.15 C 258.45 215.94 254.36 214.10 249.99 213.72 C 246.85 213.76 243.97 215.16 240.99 215.94 C 238.96 215.33 237.64 213.49 237.78 211.38 C 239.76 209.91 242.67 208.94 243.26 206.24 C 245.28 201.36 243.84 196.09 244.05 191.00 C 243.84 185.66 243.92 180.30 244.65 175.00 C 244.16 171.23 243.37 167.30 244.56 163.55 C 245.06 160.37 246.41 157.20 245.46 153.98 C 246.83 147.52 246.85 140.93 247.28 134.38 C 247.23 125.21 251.62 116.42 250.02 107.19 C 249.56 104.87 248.51 102.74 246.83 101.08 C 244.92 101.48 243.01 101.22 241.13 100.81 C 241.04 98.95 240.98 97.09 240.93 95.23 C 241.72 94.54 242.54 93.89 243.39 93.26 C 252.41 91.05 261.90 92.63 270.89 90.36 C 274.86 91.13 278.95 91.44 282.98 91.03 C 287.60 90.65 292.18 91.49 296.79 91.67 C 300.61 90.63 304.64 91.42 308.45 90.36 M 302.28 98.33 C 297.34 99.65 292.26 98.24 287.25 98.18 C 283.32 99.25 279.19 98.99 275.16 98.77 C 270.48 97.09 265.82 99.86 261.07 99.29 C 258.90 100.66 256.97 102.43 254.21 102.37 C 256.41 105.54 256.69 109.28 257.72 112.87 C 257.26 114.38 256.02 115.80 256.66 117.44 C 257.27 119.90 256.28 122.34 255.90 124.76 C 254.65 129.11 255.20 133.71 254.09 138.08 C 255.12 144.01 252.94 149.88 253.29 155.75 C 252.23 159.91 251.76 164.18 250.66 168.33 C 250.77 174.49 251.65 181.36 248.39 186.83 C 248.93 187.87 249.63 188.85 249.94 190.00 C 249.47 194.27 248.99 198.64 249.84 202.89 C 249.51 204.48 249.10 206.05 248.82 207.65 C 255.76 209.91 263.11 208.89 270.12 210.85 C 273.62 210.07 277.20 210.10 280.75 209.79 C 284.48 208.69 288.43 209.03 292.21 208.17 C 294.15 207.52 295.91 208.63 297.48 209.62 C 301.66 207.30 306.37 208.70 310.84 208.73 C 313.54 208.27 316.19 207.56 318.89 207.17 C 322.83 208.11 326.82 208.76 330.87 209.00 C 332.14 205.40 331.72 201.50 332.87 197.88 C 327.93 198.29 323.13 200.71 318.14 199.58 C 316.75 199.99 315.53 201.12 314.02 200.97 C 308.65 200.29 303.36 201.93 298.09 202.73 C 294.42 201.44 290.60 202.29 286.88 202.75 C 284.33 202.38 281.76 201.64 279.17 202.19 C 273.62 203.66 267.83 202.85 262.17 202.82 C 258.67 202.43 256.40 198.86 256.77 195.52 C 257.09 187.95 260.40 180.75 259.24 173.13 C 260.67 167.72 261.76 162.24 262.80 156.76 C 262.85 152.98 266.28 149.63 269.86 149.07 C 272.89 150.11 276.18 149.07 279.03 150.79 C 278.75 149.54 278.52 148.29 278.44 147.01 C 273.42 145.64 266.44 146.69 264.12 140.82 C 263.77 136.98 264.09 133.12 264.35 129.29 C 265.94 122.19 263.81 114.79 265.77 107.74 C 266.25 105.61 266.04 103.17 267.28 101.30 C 269.91 100.58 272.81 100.19 275.49 100.60 C 277.44 102.03 279.98 100.57 281.93 102.06 C 286.20 104.35 291.03 102.15 295.55 102.39 C 297.40 102.82 299.25 103.25 301.06 103.86 C 305.63 100.32 311.46 101.05 316.86 100.71 C 319.15 101.04 321.34 101.81 323.60 102.34 C 325.83 104.49 328.83 105.41 331.28 107.26 C 330.17 103.97 329.16 100.63 328.68 97.18 C 320.00 94.22 310.98 97.06 302.28 98.33 M 272.08 137.46 C 270.55 140.45 275.34 137.74 272.08 137.46 M 293.78 145.91 C 290.98 145.99 287.81 144.23 285.31 146.17 C 284.12 147.27 282.66 146.31 281.33 146.12 C 281.07 146.42 280.57 147.01 280.32 147.31 C 281.79 148.61 283.19 149.99 284.47 151.49 C 290.93 150.78 298.25 150.27 304.00 153.80 C 303.74 150.14 304.75 146.42 303.73 142.83 C 300.18 142.99 297.19 145.13 293.78 145.91 Z" opacity="1.00" fill="#ffffff"/>
<path d="M 131.62 97.69 C 134.77 96.60 137.95 98.07 141.03 98.73 C 144.10 98.08 147.17 98.71 150.25 98.80 C 151.06 100.22 151.92 101.61 152.82 102.97 C 150.81 104.90 147.90 105.98 146.68 108.64 C 144.67 112.28 145.07 116.51 144.79 120.50 C 144.80 125.32 143.91 130.16 144.87 134.94 C 142.06 144.69 144.93 154.77 143.64 164.68 C 142.96 169.51 144.82 174.42 143.27 179.15 C 144.31 183.97 144.07 188.95 143.99 193.87 C 146.96 192.97 149.98 192.28 153.00 191.59 C 156.99 192.08 161.01 192.02 164.96 191.28 C 170.11 192.49 175.39 193.87 180.71 193.15 C 185.77 193.80 190.88 194.00 195.98 193.89 C 201.31 192.91 206.88 193.30 211.93 191.00 C 216.16 190.07 219.59 187.31 222.27 184.00 C 223.62 185.04 225.08 185.94 226.59 186.74 C 225.49 190.45 222.92 193.62 222.69 197.60 C 221.59 202.65 221.90 209.10 217.61 212.66 C 212.53 213.17 207.39 212.84 202.32 213.58 C 197.83 214.41 193.18 213.60 188.75 214.87 C 183.91 214.86 178.98 213.72 174.18 215.01 C 169.42 216.34 164.38 215.73 159.60 216.98 C 157.46 217.64 155.22 217.66 153.01 217.78 C 145.66 217.03 138.24 216.86 130.87 216.88 C 126.24 216.50 122.36 219.27 118.18 220.76 C 116.95 219.48 115.72 218.22 114.51 216.93 C 116.74 213.50 121.60 212.42 122.45 208.17 C 123.42 207.08 124.94 206.81 126.17 206.12 C 124.97 206.48 123.77 206.85 122.58 207.23 C 123.69 199.86 122.66 192.40 123.02 184.98 C 122.53 180.34 124.14 175.85 123.84 171.23 C 124.32 166.08 123.36 160.82 124.76 155.79 C 124.37 150.85 125.30 145.90 124.86 140.95 C 123.86 134.71 124.10 128.37 124.10 122.08 C 125.27 117.15 126.56 112.19 127.05 107.13 C 126.69 103.38 121.30 103.12 121.73 99.13 C 124.77 97.33 128.37 98.83 131.62 97.69 M 134.19 105.32 C 133.92 112.66 130.71 119.61 130.99 127.02 C 130.48 136.41 132.30 145.91 130.34 155.22 C 130.04 158.14 129.36 161.05 129.83 164.00 C 130.10 165.65 128.35 166.91 128.81 168.60 C 129.08 170.87 128.01 173.10 128.76 175.34 C 129.89 177.91 126.64 179.92 127.59 182.44 C 128.29 185.26 128.20 188.17 127.44 190.96 C 127.98 192.94 127.87 194.92 127.07 196.82 C 127.77 197.85 128.46 198.89 129.16 199.94 C 128.24 203.09 128.02 206.39 127.93 209.66 C 138.54 210.20 149.25 209.93 159.89 209.98 C 163.55 209.07 167.32 208.94 171.06 208.58 C 176.12 209.25 181.19 208.12 186.26 208.83 C 189.25 209.32 192.22 208.83 195.14 208.19 C 201.71 209.46 208.30 206.84 214.95 207.73 C 215.99 203.78 216.47 199.72 217.51 195.77 C 214.26 195.86 211.42 197.59 208.24 198.01 C 203.72 198.17 199.67 200.74 195.35 201.60 C 193.18 201.59 191.11 201.13 189.10 200.34 C 177.78 202.66 166.53 198.64 155.19 199.03 C 149.52 202.36 141.96 205.02 135.98 200.97 C 135.57 190.27 137.42 179.68 136.81 168.97 C 136.56 163.95 137.26 158.95 137.08 153.93 C 137.42 148.55 136.71 143.14 137.70 137.80 C 138.58 133.36 137.63 128.81 138.29 124.38 C 139.69 120.15 138.19 115.63 139.40 111.37 C 139.89 109.57 140.39 107.77 141.02 106.01 C 139.33 104.24 135.94 103.17 134.19 105.32 Z" opacity="1.00" fill="#ffffff"/>
<path d="M 157.44 189.05 C 160.50 187.54 157.57 192.33 157.44 189.05 Z" opacity="1.00" fill="#ffffff"/>
<path d="M 444.78 257.13 C 447.71 254.18 451.39 250.85 455.79 251.03 C 458.26 252.47 459.32 255.52 462.08 256.70 C 460.70 259.71 461.28 263.11 460.17 266.18 C 458.99 270.70 457.39 275.09 455.65 279.42 C 458.17 278.14 461.40 275.48 464.15 277.75 C 465.89 279.36 468.69 280.20 469.23 282.77 C 471.10 286.24 469.52 290.19 469.83 293.92 C 467.33 299.40 464.82 304.89 462.73 310.55 C 460.68 313.05 458.71 315.62 456.93 318.32 C 454.68 317.79 452.64 316.73 450.63 315.65 C 452.27 310.39 456.55 306.51 458.27 301.30 C 460.19 295.87 463.61 290.66 463.03 284.67 C 461.70 285.02 460.23 285.15 459.29 286.27 C 456.92 288.60 453.68 290.04 451.96 293.00 C 450.62 295.29 447.58 295.97 446.47 298.47 C 444.50 303.20 440.32 306.47 438.04 311.01 C 436.37 313.99 434.48 316.92 431.82 319.12 C 430.16 318.70 428.51 318.25 426.87 317.80 C 426.13 312.41 430.31 308.46 431.51 303.53 C 434.05 300.16 435.47 296.16 437.40 292.44 C 439.85 288.78 442.52 285.10 443.53 280.74 C 449.24 273.95 451.68 265.16 454.20 256.81 C 451.38 256.88 448.86 258.11 446.36 259.25 C 445.97 258.72 445.18 257.66 444.78 257.13 Z" opacity="1.00" fill="#ffffff"/>
<path d="M 730.41 256.75 C 733.26 256.67 734.36 259.64 736.40 261.13 C 733.06 267.67 729.07 273.87 725.08 280.02 C 723.04 283.28 721.94 287.02 719.69 290.16 C 720.59 290.86 721.48 291.57 722.38 292.29 C 721.80 292.53 720.63 293.01 720.05 293.25 C 720.46 294.05 720.85 294.86 721.23 295.69 C 723.76 295.78 725.33 297.80 727.07 299.37 C 727.85 297.97 728.69 296.61 730.52 296.69 C 729.75 297.71 728.92 298.68 728.05 299.61 C 728.44 300.73 728.83 301.85 729.21 302.99 C 727.52 304.00 725.81 304.97 724.17 306.05 C 720.18 303.39 715.11 302.63 712.10 298.61 C 710.03 300.33 708.00 302.08 706.10 303.98 C 704.22 304.47 702.28 304.72 700.35 304.85 C 697.44 303.10 694.78 300.95 692.08 298.90 C 690.39 296.41 689.74 292.96 691.09 290.15 C 693.51 284.18 696.14 278.29 698.19 272.18 C 698.63 270.96 699.49 269.95 700.19 268.87 C 699.34 267.89 698.47 266.93 697.66 265.93 C 698.18 264.24 698.26 261.85 700.36 261.32 C 703.26 260.67 706.27 261.08 709.23 261.05 C 708.95 262.32 708.65 263.60 708.28 264.85 C 709.11 265.64 709.95 266.43 710.80 267.23 C 708.93 269.39 708.96 272.77 706.40 274.37 C 704.26 275.98 704.62 279.14 703.30 281.33 C 700.90 285.33 699.60 289.82 698.08 294.20 C 697.10 297.11 700.82 297.60 702.56 298.88 C 706.39 296.58 708.84 292.72 710.86 288.85 C 712.66 282.08 716.59 276.21 720.64 270.60 C 723.10 265.44 727.52 261.63 730.41 256.75 Z" opacity="1.00" fill="#ffffff"/>
<path d="M 192.43 262.15 C 192.98 262.18 194.09 262.25 194.64 262.28 C 195.59 263.19 196.52 264.11 197.45 265.04 C 197.04 267.29 196.71 269.56 196.33 271.82 C 194.07 274.36 193.25 277.71 191.46 280.54 C 190.43 285.46 186.61 289.12 184.76 293.72 C 183.45 297.05 181.38 300.07 180.48 303.57 C 179.41 308.09 177.00 312.11 175.33 316.42 C 174.92 318.55 174.76 320.74 174.20 322.86 C 174.83 323.40 175.45 323.94 176.08 324.49 C 177.68 324.18 179.29 323.99 180.92 323.87 C 180.02 326.74 180.51 330.09 178.59 332.56 C 177.65 333.26 176.68 333.93 175.73 334.63 C 172.81 333.73 169.10 333.54 167.34 330.68 C 166.23 328.41 165.15 326.13 163.71 324.06 C 160.48 327.13 155.94 327.87 152.30 330.28 C 149.56 331.69 146.62 333.92 143.38 332.76 C 138.92 332.10 136.49 327.70 135.11 323.84 C 135.01 319.67 134.25 315.16 136.35 311.33 C 139.17 305.90 140.27 299.27 145.19 295.21 C 147.90 292.93 149.44 289.24 153.03 288.11 C 154.90 287.62 156.77 285.94 158.73 287.03 C 160.63 287.90 162.56 288.70 164.58 289.26 C 166.35 291.58 168.45 293.60 170.26 295.88 C 174.20 292.98 175.55 288.16 178.25 284.27 C 180.87 280.84 183.30 277.26 185.56 273.59 C 186.63 270.46 189.34 267.96 189.17 264.46 C 190.32 263.78 191.39 262.98 192.43 262.15 M 158.08 294.20 C 150.39 298.92 146.75 307.54 143.41 315.51 C 142.68 318.70 142.17 322.20 143.73 325.25 C 152.68 322.96 161.67 318.33 165.84 309.65 C 166.18 305.55 167.00 301.01 164.69 297.31 C 162.77 295.72 160.42 294.91 158.08 294.20 M 165.17 323.19 C 165.85 323.86 165.85 323.86 165.17 323.19 Z" opacity="1.00" fill="#ffffff"/>
<path d="M 641.87 266.91 C 644.73 266.27 647.12 264.73 649.15 262.62 C 651.08 264.38 651.85 266.93 653.15 269.12 C 652.24 270.57 651.42 272.08 650.45 273.48 C 647.74 274.71 644.68 275.24 642.52 277.45 C 639.52 283.82 635.06 289.31 631.00 294.99 C 628.24 299.81 624.34 303.87 621.87 308.85 C 619.87 312.44 616.69 315.37 612.77 316.67 C 609.06 323.29 605.02 329.75 601.43 336.44 C 599.63 341.25 595.58 344.61 592.30 348.39 C 589.86 351.62 584.01 351.83 581.70 348.35 C 579.96 346.85 578.91 343.52 581.30 342.13 C 583.05 341.91 584.83 341.97 586.60 341.96 C 588.36 339.89 590.52 338.28 592.71 336.71 C 598.01 328.40 604.03 320.63 609.64 312.53 C 610.53 310.70 609.78 308.55 609.54 306.64 C 609.43 298.50 608.17 290.25 609.95 282.15 C 608.03 281.76 606.12 281.38 604.29 280.70 C 601.71 279.17 603.01 275.78 603.19 273.40 C 609.72 270.26 617.36 276.06 617.97 282.84 C 616.28 288.91 617.04 295.32 617.16 301.55 C 619.48 300.72 620.40 298.44 621.44 296.43 C 625.03 290.99 628.07 285.20 631.97 279.97 C 634.40 275.04 637.21 270.05 641.87 266.91 Z" opacity="1.00" fill="#ffffff"/>
<path d="M 671.34 265.22 C 674.50 264.92 678.55 264.32 680.74 267.24 C 686.12 273.67 685.36 282.86 682.02 290.03 C 678.79 295.32 675.81 300.88 671.06 305.00 C 667.68 307.18 664.28 310.11 660.04 310.04 C 654.59 310.20 649.22 307.18 646.42 302.57 C 644.88 297.35 647.15 292.05 649.27 287.34 C 653.48 279.53 659.96 273.36 666.34 267.33 C 667.89 266.39 669.58 265.68 671.34 265.22 M 672.46 273.86 C 669.21 277.78 664.65 280.67 662.41 285.35 C 658.07 289.45 656.35 295.37 654.50 300.86 C 659.25 303.25 665.69 302.47 669.12 298.15 C 674.47 291.71 678.90 283.64 678.03 274.98 C 676.21 274.42 674.33 274.11 672.46 273.86 Z" opacity="1.00" fill="#ffffff"/>
<path d="M 519.78 274.27 C 522.41 273.11 525.01 271.74 527.84 271.12 C 532.07 271.76 534.38 275.59 536.20 279.07 C 539.86 276.21 543.98 273.90 548.21 272.02 C 553.68 270.83 557.69 275.19 560.99 278.83 C 560.30 279.56 559.62 280.30 558.94 281.03 C 559.84 281.73 560.75 282.43 561.66 283.15 C 561.05 285.56 560.36 287.96 559.61 290.34 C 560.14 295.42 557.03 300.11 553.62 303.61 C 549.67 309.32 546.45 315.50 541.95 320.83 C 540.30 319.23 537.97 319.13 535.85 318.74 C 535.96 316.78 535.48 314.51 536.88 312.90 C 541.45 307.01 544.50 300.05 549.51 294.50 C 551.62 292.49 550.48 289.33 551.97 287.03 C 553.30 284.86 552.97 282.29 553.01 279.88 C 543.24 279.39 537.86 289.10 533.17 296.14 C 530.92 298.10 530.41 301.20 528.28 303.21 C 524.95 306.18 524.72 310.93 522.71 314.67 C 521.18 319.08 515.66 319.10 512.81 322.34 C 510.78 321.46 508.80 320.46 506.82 319.50 C 508.20 313.82 512.65 309.50 515.36 304.42 C 520.20 295.94 526.71 287.84 528.18 277.95 C 525.77 277.88 523.35 278.07 521.12 279.02 C 520.65 277.44 520.16 275.87 519.78 274.27 Z" opacity="1.00" fill="#ffffff"/>
<path d="M 488.44 276.45 C 490.53 274.64 493.53 274.64 496.12 274.05 C 499.05 273.41 501.35 275.76 503.53 277.32 C 504.23 279.97 506.52 282.34 505.74 285.21 C 505.17 291.52 499.09 295.16 494.51 298.64 C 491.55 299.63 488.33 300.71 485.55 298.65 C 484.87 300.45 483.67 302.07 483.31 303.96 C 483.86 306.33 483.75 308.77 484.10 311.16 C 488.92 310.93 493.07 308.14 497.41 306.32 C 499.56 306.21 501.72 306.15 503.88 306.22 C 504.33 309.36 501.99 311.93 499.65 313.64 C 496.02 315.43 492.32 317.06 488.72 318.89 C 484.27 319.94 480.10 316.88 477.26 313.76 C 474.90 311.42 474.90 307.98 474.20 304.96 C 476.15 294.39 481.23 284.40 488.44 276.45 M 488.02 291.96 C 489.08 292.35 490.39 293.91 491.51 292.78 C 495.38 290.40 499.71 286.81 499.09 281.75 C 493.01 281.63 491.16 288.04 488.02 291.96 Z" opacity="1.00" fill="#ffffff"/>
<path d="M 418.29 278.96 C 420.94 278.59 423.41 279.77 424.90 281.98 C 425.50 283.76 425.36 285.71 425.90 287.53 C 423.64 290.42 421.62 293.49 419.48 296.47 C 414.95 304.95 406.65 310.45 400.92 317.94 C 398.18 320.54 394.36 318.67 391.32 317.74 C 389.73 317.08 390.08 315.02 389.58 313.70 C 387.79 315.56 386.48 318.24 383.87 319.06 C 381.29 318.52 378.04 318.77 376.15 316.69 C 375.32 312.09 376.54 307.51 378.37 303.31 C 380.37 298.64 381.88 293.80 383.15 288.89 C 380.21 288.65 377.57 289.77 375.10 291.21 C 374.56 290.18 374.09 289.13 373.69 288.05 C 375.26 284.59 379.11 282.25 382.93 282.95 C 386.78 282.65 388.08 286.74 389.79 289.38 C 391.13 293.92 386.51 298.93 389.15 303.25 C 391.23 301.23 393.10 298.88 395.79 297.63 C 396.95 299.16 398.28 300.54 399.88 301.62 C 401.22 305.33 396.78 307.69 397.87 311.46 C 402.12 308.13 404.89 303.43 408.73 299.69 C 412.66 295.25 415.07 289.81 417.75 284.60 C 418.09 282.73 418.08 280.83 418.29 278.96 Z" opacity="1.00" fill="#ffffff"/>
<path d="M 311.53 284.56 C 314.32 282.27 318.18 282.64 321.50 283.21 C 324.21 285.24 325.61 288.26 326.90 291.29 C 327.50 293.59 326.24 295.78 325.71 297.97 C 324.90 297.61 324.08 297.25 323.27 296.91 C 323.04 294.09 322.12 291.39 320.88 288.87 C 313.11 287.96 308.12 298.13 311.04 304.62 C 313.32 311.46 314.74 320.51 309.08 326.11 C 307.59 327.01 306.05 327.81 304.59 328.74 C 301.83 329.31 298.95 329.10 296.15 328.94 C 293.05 328.36 291.22 325.69 289.68 323.20 C 287.99 321.49 289.66 319.19 290.37 317.43 C 291.55 314.87 294.54 314.50 296.90 313.64 C 297.44 314.02 298.53 314.80 299.07 315.19 C 298.48 315.86 297.88 316.54 297.28 317.21 C 297.68 318.45 297.99 319.72 298.29 321.00 C 300.10 321.00 301.92 321.01 303.74 321.02 C 306.96 313.73 303.22 306.18 301.71 299.02 C 303.04 293.19 306.27 287.64 311.53 284.56 Z" opacity="1.00" fill="#ffffff"/>
<path d="M 218.82 290.81 C 220.29 290.45 221.81 290.50 223.31 290.37 C 224.49 292.39 225.98 294.17 228.08 295.27 C 229.52 293.91 230.98 292.57 232.41 291.19 C 234.22 292.05 236.35 293.10 237.11 295.05 C 234.27 304.36 230.46 313.29 226.57 322.20 C 226.79 324.09 227.02 325.98 227.13 327.88 C 225.90 328.50 224.66 329.08 223.42 329.65 C 221.94 328.65 220.39 327.79 218.85 326.92 C 216.50 328.81 213.62 330.91 210.49 329.59 C 206.40 327.19 201.19 326.74 197.75 323.25 C 196.60 321.25 196.09 318.90 195.32 316.72 C 195.60 311.40 199.64 307.54 202.13 303.14 C 205.90 297.01 212.18 293.16 218.82 290.81 M 211.07 307.03 C 208.51 309.81 207.35 313.44 204.96 316.35 C 206.40 319.41 209.02 321.20 212.18 322.16 C 215.80 320.20 218.35 316.82 220.71 313.54 C 221.13 310.64 222.61 308.16 224.21 305.77 C 224.20 303.09 224.29 300.25 222.94 297.83 C 218.19 299.62 213.51 302.42 211.07 307.03 Z" opacity="1.00" fill="#ffffff"/>
<path d="M 253.46 289.93 C 254.77 289.96 256.09 289.93 257.39 290.13 C 258.56 291.84 260.08 293.32 261.10 295.13 C 259.78 302.07 259.02 309.14 259.13 316.23 C 264.94 313.56 266.33 306.67 270.09 302.12 C 272.54 300.46 273.81 297.77 275.39 295.39 C 277.19 293.45 279.01 291.52 280.86 289.63 C 282.34 291.00 283.78 292.43 285.00 294.05 C 283.55 297.44 280.73 300.00 279.53 303.50 C 277.90 304.85 275.68 305.90 275.13 308.15 C 274.87 309.97 273.12 310.77 272.07 312.07 C 270.16 315.72 266.95 318.42 265.11 322.12 C 258.13 329.33 254.20 338.66 249.43 347.31 C 246.84 354.87 239.29 359.11 231.98 361.05 C 228.91 360.60 226.64 358.10 223.83 356.93 C 224.65 354.79 224.80 352.23 226.65 350.65 C 228.60 348.44 231.54 347.74 234.32 347.30 C 234.13 349.92 232.56 352.05 231.58 354.39 C 234.00 353.18 236.51 352.14 238.96 350.98 C 241.44 349.82 242.68 347.24 243.97 344.99 C 246.29 340.24 249.29 335.80 250.92 330.74 C 251.27 329.21 250.82 327.67 250.59 326.17 C 251.38 325.08 252.46 324.14 252.90 322.84 C 253.39 314.37 252.12 305.75 254.16 297.41 C 253.05 296.57 251.92 295.76 250.81 294.93 C 250.87 294.31 250.98 293.07 251.03 292.45 C 251.85 291.61 252.66 290.78 253.46 289.93 Z" opacity="1.00" fill="#ffffff"/>
<path d="M 478.33 342.00 C 479.43 341.99 480.53 341.98 481.64 341.97 C 481.77 343.83 482.53 345.47 483.92 346.72 C 483.22 347.82 482.54 348.93 481.83 350.03 C 479.25 350.14 476.65 350.03 474.79 348.00 C 475.94 345.98 477.15 344.00 478.33 342.00 Z" opacity="1.00" fill="#ffffff"/>
<path d="M 384.09 373.42 C 387.98 368.60 393.40 365.54 398.14 361.69 C 401.65 362.16 402.76 365.94 405.75 367.36 C 408.41 365.70 410.58 362.62 414.01 362.82 C 417.82 362.64 422.45 365.43 421.52 369.76 C 422.88 369.86 424.25 370.10 425.63 369.96 C 430.25 366.30 435.56 362.09 441.85 362.91 C 445.44 364.32 448.51 367.46 449.93 371.04 C 449.38 374.54 448.78 378.04 447.52 381.36 C 446.91 386.64 444.10 391.25 442.08 396.03 C 441.54 400.15 438.31 403.28 438.08 407.42 C 437.44 410.36 435.46 412.80 433.78 415.24 C 431.63 414.80 429.52 414.17 427.46 413.44 C 426.72 409.40 429.21 405.97 430.22 402.25 C 432.86 395.30 435.88 388.50 438.64 381.59 C 438.96 378.57 439.79 375.67 440.96 372.87 C 437.99 373.02 434.49 372.87 432.27 375.22 C 430.18 377.49 427.38 379.33 426.29 382.33 C 424.12 387.21 422.87 392.44 419.96 397.00 C 418.87 400.28 415.92 402.25 414.11 405.05 C 412.40 408.21 409.69 410.73 408.55 414.21 C 406.39 414.25 404.59 413.13 402.95 411.86 C 402.98 409.90 402.98 407.95 402.93 406.00 C 405.45 404.30 406.13 401.17 407.77 398.77 C 411.54 392.64 414.38 386.00 417.97 379.78 C 418.43 376.34 417.22 373.14 415.79 370.10 C 414.08 370.94 412.30 371.65 410.61 372.52 C 406.71 376.54 404.38 381.68 401.21 386.23 C 398.55 391.43 394.94 396.09 392.48 401.41 C 391.21 402.53 389.96 403.71 389.37 405.34 C 387.52 409.62 384.92 413.55 381.83 417.04 C 379.74 416.08 377.69 415.03 375.71 413.89 C 378.82 406.60 382.11 399.25 387.06 392.99 C 390.14 385.95 394.41 379.34 396.27 371.81 C 392.27 373.04 388.82 375.53 385.84 378.42 C 385.12 376.82 383.34 375.33 384.09 373.42 Z" opacity="1.00" fill="#ffffff"/>
<path d="M 506.94 368.37 C 510.75 365.85 514.88 363.02 519.65 363.14 C 521.53 364.39 523.57 365.36 525.69 366.17 C 526.24 369.61 529.32 372.26 529.06 375.87 C 529.43 378.19 526.42 379.02 526.39 381.21 C 525.94 387.24 520.81 391.33 518.91 396.84 C 515.94 403.06 513.61 409.57 511.40 416.10 C 509.06 416.18 506.92 415.24 504.86 414.26 C 507.49 405.36 511.33 396.86 515.70 388.68 C 519.18 383.51 522.24 377.55 522.06 371.18 C 516.96 369.15 511.45 372.56 509.20 377.18 C 505.58 383.81 499.98 389.21 497.28 396.33 C 492.95 401.24 492.74 409.34 486.08 412.28 C 484.63 411.39 483.18 410.52 481.75 409.64 C 482.57 406.48 483.55 403.22 485.68 400.67 C 490.56 390.25 498.68 381.20 501.05 369.64 C 498.58 369.98 495.72 370.68 494.48 367.88 C 496.49 365.73 499.58 363.98 502.53 365.24 C 503.97 366.31 505.42 367.39 506.94 368.37 Z" opacity="1.00" fill="#ffffff"/>
<path d="M 468.01 367.00 C 470.81 366.62 473.36 365.34 475.83 364.03 C 477.12 365.53 478.35 367.10 479.79 368.49 C 479.27 370.81 478.12 372.84 476.53 374.59 C 473.98 381.28 469.98 387.28 466.59 393.55 C 463.81 396.43 462.83 400.32 461.04 403.78 C 462.73 403.88 464.13 404.60 465.09 406.03 C 467.60 404.86 470.27 405.14 472.58 406.64 C 469.55 408.24 466.41 410.60 462.82 410.24 C 458.20 410.27 454.08 412.84 449.53 413.15 C 448.65 411.66 447.68 410.23 446.69 408.82 C 450.05 405.47 453.75 402.28 455.99 398.01 C 460.54 389.82 465.81 381.97 469.31 373.24 C 468.00 373.09 466.69 372.95 465.39 372.83 C 464.77 371.81 464.14 370.80 463.50 369.80 C 464.85 368.65 466.06 367.00 468.01 367.00 Z" opacity="1.00" fill="#ffffff"/>
<path d="M 553.49 365.33 C 556.52 363.72 558.98 366.61 561.74 367.35 C 562.53 369.67 563.66 371.85 565.04 373.88 C 563.74 375.87 563.35 378.09 563.97 380.38 C 561.60 381.82 559.46 383.60 557.38 385.43 C 554.00 387.11 550.35 388.19 546.77 389.35 C 544.92 389.25 543.23 388.29 541.47 387.82 C 540.44 390.03 539.22 392.14 538.18 394.35 C 538.18 396.42 538.13 398.51 538.26 400.59 C 540.26 403.25 541.35 407.00 544.65 408.38 C 546.85 409.73 549.39 407.95 551.74 407.84 C 556.06 405.97 559.06 402.11 561.34 398.09 C 563.86 397.18 563.69 401.32 564.24 402.96 C 561.45 408.50 555.91 412.15 550.75 415.34 C 546.89 415.16 543.11 413.81 539.41 412.71 C 535.93 409.72 532.61 406.59 529.10 403.64 C 529.45 399.17 527.82 394.32 530.23 390.22 C 533.08 384.09 536.77 378.33 541.66 373.63 C 544.78 369.76 549.60 368.22 553.49 365.33 M 551.65 375.66 C 548.71 376.83 547.58 380.01 545.66 382.27 C 550.20 381.53 554.31 379.34 558.02 376.72 C 557.99 375.00 557.95 373.30 557.89 371.59 C 555.77 372.89 553.91 374.59 551.65 375.66 Z" opacity="1.00" fill="#ffffff"/>
<path d="M 185.51 367.07 C 187.76 367.07 189.99 366.74 192.17 366.20 C 195.75 365.31 199.47 366.87 202.04 369.36 C 200.21 370.75 198.52 372.36 196.49 373.48 C 191.99 375.26 190.54 380.34 188.09 384.08 C 185.45 389.31 181.65 393.79 178.96 398.98 C 173.91 405.53 170.94 413.38 165.94 419.95 C 165.00 420.63 164.31 421.99 163.03 421.99 C 161.40 421.38 159.88 420.56 158.33 419.81 C 158.09 418.07 157.76 416.35 157.33 414.66 C 156.12 409.25 157.94 403.85 158.07 398.44 C 153.70 401.47 152.42 407.11 148.92 410.98 C 147.05 414.86 143.91 417.76 140.78 420.65 C 135.37 419.62 131.23 415.33 130.02 409.99 C 130.71 406.79 131.35 403.58 132.46 400.50 C 134.07 393.38 133.46 385.48 137.20 379.01 C 134.58 378.99 131.94 379.14 129.32 378.88 C 127.42 377.83 128.92 375.18 130.24 374.26 C 134.28 372.82 138.61 372.43 142.63 370.92 C 143.95 372.73 146.84 374.12 145.93 376.78 C 144.64 379.90 143.16 383.05 142.58 386.39 C 142.92 390.95 140.57 395.16 140.46 399.71 C 140.52 404.42 136.65 408.89 138.77 413.56 C 145.12 409.14 146.51 401.02 151.58 395.51 C 152.56 392.15 154.84 389.51 156.51 386.51 C 157.61 383.37 160.19 381.17 162.30 378.73 C 164.88 379.86 166.74 381.98 168.54 384.07 C 167.82 387.15 167.55 390.34 166.18 393.24 C 166.62 399.07 162.35 404.64 164.28 410.38 C 167.46 405.46 170.06 400.19 173.35 395.33 C 175.45 390.40 179.70 386.78 181.57 381.72 C 181.55 380.19 181.67 378.70 182.66 377.46 C 181.12 376.73 179.96 374.88 180.39 373.17 C 180.82 370.19 184.66 369.89 185.51 367.07 Z" opacity="1.00" fill="#ffffff"/>
<path d="M 204.82 389.85 C 211.28 382.93 215.64 373.24 225.17 369.95 C 228.79 369.83 230.93 373.61 233.88 375.23 C 234.04 377.83 234.71 380.38 234.65 382.99 C 233.81 386.24 232.77 389.44 231.65 392.60 C 228.67 395.35 227.26 399.58 223.52 401.49 C 221.22 403.43 218.03 402.95 215.24 403.00 C 213.13 401.96 211.62 399.79 209.07 399.58 C 208.05 402.04 208.01 404.89 206.05 406.89 C 207.13 408.50 206.79 410.27 206.28 412.01 C 206.60 413.40 207.02 414.77 207.37 416.17 C 210.69 415.51 214.36 415.37 217.04 413.06 C 219.67 410.79 223.14 409.73 226.60 409.87 C 225.83 412.59 226.81 416.37 224.04 418.11 C 222.17 419.22 221.02 421.04 219.68 422.68 C 217.57 424.02 215.28 425.07 212.93 425.93 C 210.44 425.55 207.97 425.06 205.48 424.73 C 203.60 423.09 201.56 421.65 199.22 420.73 C 198.65 417.77 197.03 415.07 196.99 412.01 C 196.77 403.88 200.60 396.52 204.82 389.85 M 215.91 388.77 C 217.78 390.98 216.25 393.55 215.78 395.97 C 217.09 395.98 218.41 395.99 219.73 396.00 C 222.78 391.46 226.50 387.16 227.91 381.77 C 228.45 379.90 227.72 378.15 226.71 376.61 C 222.02 379.59 219.53 384.75 215.91 388.77 Z" opacity="1.00" fill="#ffffff"/>
<path d="M 302.63 385.61 C 307.75 378.19 315.88 373.49 324.07 370.16 C 326.69 371.26 328.41 373.88 330.79 375.45 C 330.48 377.61 330.49 379.83 331.06 381.95 C 330.35 382.56 329.63 383.17 328.93 383.79 C 330.94 387.35 327.10 389.86 326.15 393.02 C 325.16 396.33 321.54 397.77 318.45 398.43 C 316.22 399.49 314.10 400.78 311.89 401.87 C 309.37 403.77 306.07 402.86 303.15 403.02 C 302.15 404.90 300.77 406.75 301.01 409.02 C 301.10 411.64 300.23 414.34 301.20 416.88 C 305.63 417.85 310.35 416.87 313.71 413.72 C 314.97 412.19 316.84 411.85 318.73 411.85 C 319.18 414.10 319.73 416.35 320.15 418.62 C 315.51 422.34 310.43 426.13 304.33 426.52 C 301.15 424.60 297.28 424.09 294.30 421.76 C 291.43 418.20 290.52 413.21 291.88 408.88 C 291.95 399.95 296.57 391.90 302.63 385.61 M 316.78 383.79 C 313.66 385.97 311.65 389.29 308.88 391.85 C 306.81 393.51 305.98 396.12 304.83 398.41 C 310.02 396.31 314.56 392.94 319.71 390.76 C 322.29 387.27 323.00 382.95 323.80 378.79 C 321.44 380.44 319.07 382.06 316.78 383.79 Z" opacity="1.00" fill="#ffffff"/>
<path d="M 265.96 378.35 C 270.98 372.36 279.28 370.15 286.84 371.12 C 289.42 372.36 292.16 373.80 293.79 376.25 C 293.77 379.25 294.37 382.72 291.91 384.99 C 289.42 388.33 284.94 387.97 281.26 388.07 C 280.08 385.67 279.42 382.99 280.02 380.33 C 281.33 378.52 283.59 378.11 285.65 377.79 C 286.00 379.30 285.86 381.40 288.00 381.29 C 288.01 379.86 288.02 378.44 288.03 377.02 C 283.81 377.15 279.28 376.22 275.41 378.38 C 271.93 380.47 268.02 382.75 266.87 386.93 C 266.59 388.45 265.01 388.96 263.90 389.75 C 264.48 393.54 261.36 395.94 260.19 399.24 C 258.39 402.90 255.31 405.73 253.42 409.34 C 251.25 413.43 249.39 417.78 246.24 421.24 C 244.45 422.64 242.10 423.05 240.06 423.97 C 238.48 422.80 236.99 421.52 235.58 420.16 C 238.67 416.91 241.78 413.43 243.02 409.02 C 244.79 402.71 249.05 397.55 251.50 391.54 C 254.91 387.81 255.79 382.72 258.11 378.38 C 256.19 378.82 254.26 379.48 252.28 379.02 C 252.22 377.49 251.24 375.83 252.01 374.36 C 253.95 372.90 256.42 371.94 258.86 371.93 C 261.97 373.17 264.43 375.36 265.96 378.35 Z" opacity="1.00" fill="#ffffff"/>
</g>
</svg>